<?xml version="1.0" encoding="utf-8"?>
<!-- Generator: Adobe Illustrator 27.0.1, SVG Export Plug-In . SVG Version: 6.00 Build 0)  -->
<svg version="1.1" id="Слой_1" xmlns="http://www.w3.org/2000/svg" xmlns:xlink="http://www.w3.org/1999/xlink" x="0px" y="0px"
	 viewBox="0 0 500 500" style="enable-background:new 0 0 500 500;" xml:space="preserve">
<path d="M371.8,149.2c-0.5,0.2-0.3,1,0.2,1c47.3,2.2,76.6-18.6,90.1-31.7c6-5.8,9.1-13.9,8.5-22.2c-2.1-30.9-9-49.4-14.6-59.6
	c-3.9-7.2-11.4-11.6-19.6-11.7C375.4,24.6,264.4,84.6,250,92.5C235.6,84.6,124.6,24.6,63.4,25c-8.2,0.1-15.6,4.5-19.6,11.7
	c-5.6,10.2-12.5,28.7-14.6,59.6c-0.5,8.3,2.5,16.4,8.5,22.2c13.6,13.1,42.8,33.9,90.1,31.7c0.6,0,0.7-0.8,0.2-1
	C116.6,143.8,50.6,109,70.7,92c9.3-7.9,38.3-17.7,135.5,36.2c0,0-94.2,124.3-90.8,138.3c8.7,36.2,101.1,175.1,133.1,207
	c0.5,0.5,1,1,1.6,1.5c0.5-0.5,1-1,1.6-1.5c32-31.9,124.3-170.9,133.1-207c3.4-14-90.8-138.3-90.8-138.3C391,74.2,420,84.1,429.3,92
	C449.4,109,383.4,143.8,371.8,149.2z M344.3,269.5c1.8,5.1,1,10.7-2.2,15c-45.9,63.9-84.1,85.6-92.2,89.7
	c-8-4.1-46.3-25.8-92.2-89.7c-3.1-4.4-4-10-2.2-15c6.9-19,33.7-64.8,94.3-103.5C310.6,204.7,337.4,250.5,344.3,269.5z"/>
</svg>
