<?xml version="1.0" encoding="utf-8"?>
<!-- Generator: Adobe Illustrator 27.0.1, SVG Export Plug-In . SVG Version: 6.00 Build 0)  -->
<svg version="1.1" id="Слой_1" xmlns="http://www.w3.org/2000/svg" xmlns:xlink="http://www.w3.org/1999/xlink" x="0px" y="0px"
	 viewBox="0 0 500 500" style="enable-background:new 0 0 500 500;" xml:space="preserve">
<path d="M171.7,25c0,0,29.3,30.1,35.7,85.3c2.3,20.1,2.1,43.3-14.9,91.7c-7.7,21.9-20.9,57.7-25.6,89.1c0,0,44,25.1,98.7,24
	c24.6-0.5,83.2-9.9,83.2-42.1c0-10.8-11-21.6-34.7-21.6c-12.8,0-27.7,0.8-56.3,25.3c0,0-8.1-20.1-8.8-47.5c0,0,44.4-28.1,91.4-7.5
	c0,0,28.3,14.7,30.9,43.7c2,21.9-9.8,63.4-94.3,68.5c-27.8,1.7-62.1,2.2-110.1-21.6c0,0-7.2,57.3,29.1,99.5
	c14.8,17.2,47.5,36.3,82.2,28.9c37.5-8,41.6-60.6,18.4-80c-9.1-7.6-21-11-32.7-9.6c-4.4,0.5-8.6,1.6-10.7,3.8
	c-1.3,1.4-1,3.7,0.6,4.7c2.5,1.5,8.2,3.2,21.2,3.2l5.7,12.1c0,0-43,1.7-46.2-12.1c-0.8-3.3-4.3-16.6,25.2-22.4
	c14.7-2.9,47.8-7.7,75.1,17.1c11.9,10.8,22.8,37.2,10.5,73.2c-6.3,18.4-28.2,42-67.2,44c-44,2.2-81.7-18.4-103.7-45.1
	c-16.6-20.1-31.5-41.2-32.4-103.5c-0.3-25.2,0.6-48.3,17.8-99.2c8.2-24.2,24.2-76.8,16.2-99.5c-1.7-4.7-6.4-16.7-20.5-4.4
	c-8.6,7.5-17.1,17.1-27,36.6c0,0,2.7-38.4,24.9-70.8C161.7,77.1,171.2,64.5,171.7,25z"/>
</svg>
