<?xml version="1.0" encoding="utf-8"?>
<!-- Generator: Adobe Illustrator 27.0.1, SVG Export Plug-In . SVG Version: 6.00 Build 0)  -->
<svg version="1.1" id="Слой_1" xmlns="http://www.w3.org/2000/svg" xmlns:xlink="http://www.w3.org/1999/xlink" x="0px" y="0px"
	 viewBox="0 0 500 500" style="enable-background:new 0 0 500 500;" xml:space="preserve">
<g>
	<g>
		<g>
			<g>
				<path d="M433.6,133.6c-6.9-4.6-16.3-4.1-23.5-0.1c-10.1,5.6-12.5,16.3-12.5,16.3c7.2-0.5,12.7,0.2,16.8,1.2
					c7.2,1.8,12,8.5,11.2,15.9c-1.1,10.1-7.2,20.6-7.2,20.6s-41.5-6.9-66.5-16.4c-14.7-5.6-74-31-95.3-35.1
					c-47.8-9.2-59.5,2.3-72.3,10.7c-11.6,7.6-91,76.9-113.4,100.8c-12.7,13.5-22.9,26.4-30.4,36.7c-9.6-4.9-15.4-8.2-15.4-8.2
					c3.6,4.8,7.5,9.3,11.5,13.6C29.2,300,25.3,306.9,25,307.3c4.1-3.6,9.6-8,16.1-13c61.3,61.2,160.6,77.4,209.6,75.2
					c53.6-2.3,96.7-24.5,115.7-37.7c38-26.5,89.2-80.3,104.5-120.8C481.8,182.3,471.2,158.7,433.6,133.6z M48.9,288.4
					c41.2-30.9,108.1-76.1,109.4-76.9c-10.9,22.7-13.5,40-12.9,58.7c1.1,34.3,24.5,57,24.5,57C135,328.2,80.1,303.9,48.9,288.4z
					 M300,298.7c0,0,13-39.5,2-61.3c0,0-10.4-31.4-52.4-29.7c0,0-39.4-0.7-47.1,38.4c-3,15.3,4.6,31.3,19.3,32.9
					c6,0.6,13.6,0.3,23.2-1.6c0,0-0.1,0-0.2-0.1c-9.4-7.3-12.5-20.2-7.3-30.9c3.4-6.9,9.1-13.6,18.7-12.7c0,0,19.8,3.3,8.2,39.9
					c-4.1,13-13,24.2-25.2,30.4c-9.5,4.8-23.9,7.8-37.7,2.9c0,0-25.4-8.1-18.2-55.3c0,0,1.3-8.1,5.4-18.2
					c8.9-21.6,28-36.4,57.6-39.2c18.7-1.8,43,2.2,76.1,15.3c25.3,10.1,50.1,29.7,50.1,29.7S327.9,285.1,300,298.7z"/>
			</g>
		</g>
	</g>
</g>
</svg>
