<?xml version="1.0" encoding="utf-8"?>
<!-- Generator: Adobe Illustrator 27.0.1, SVG Export Plug-In . SVG Version: 6.00 Build 0)  -->
<svg version="1.1" id="Слой_1" xmlns="http://www.w3.org/2000/svg" xmlns:xlink="http://www.w3.org/1999/xlink" x="0px" y="0px"
	 viewBox="0 0 500 500" style="enable-background:new 0 0 500 500;" xml:space="preserve">
<g>
	<path d="M332.2,95.7c0,0-74.1,53.1-100.1,70.7c-21.3,14.4-69.7,49.8-69.7,49.8s25.6,0.2,95.1,9c41.3,5.2,85.9,17.9,131-8
		c36.9-21.2,40.8-31.6,42.3-40.1c1.5-8.7,0-29.9-32.1-30.4c-13-0.2-46.6,6.9-47.1,22.2c-0.2,7.5,21.4,3.5,21.4,3.5
		s-23.4,14.4-30.4,1c-1.1-2.1-3.5-12.9,24.6-34.9c16.6-12.9,54.8-28.3,86.4-19.9c8.5,2.2,47,20.8-7,87.1
		c-32.7,40.2-74.7,90.4-155.9,136.9c-47.5,27.3-124.5,73.4-203.2,82.2c-16.2,1.8-29.4,0-29.4,0s49.8-3.5,66.7-31.9
		c0,0,95.9-28.9,135.4-49.8c30.4-16.1,90.8-49.8,115.3-75.9c9.3-9.9,34.6-34.6,48.1-64c0,0-47.1,37.1-104.6,47.1
		c-23.3,4-65.7,7.4-104.1,4c-15.8-1.4-47.8-6.2-63.2-4c-16.1,2.3-35.9,1.7-64.7,25.6c0,0,12.7-28.1,58.8-63.2
		c25.3-19.3,104.8-72.2,104.8-72.2s-62.7,0.5-92.4,0.5c-24.4,0-74.2-4-97.1,10.5c0,0-16.7,16.2-24.4,25.9l-12,7.5
		c0,0,21.9-32.6,49.3-56.3c20.7-17.9,71.2-54.3,71.2-54.3l-22.4,30.9c0,0,29.2-2.5,61.7-2.5c23.7,0,52.8,4.5,77.7,4
		C299.9,105.9,332.2,95.7,332.2,95.7z"/>
	<path d="M50.9,287c1.5,2.5,1.7,5.6,0.9,8.4c-2.1,7-10.6,11.6-17.3,7.6c-3.9-2.3-6.1-7.1-5.2-11.5C31,282.4,45.8,278.4,50.9,287z"/>
	<path d="M425.1,300.7c-1.5-3.7-0.9-8.2,1.6-11.2c3-3.7,8.6-5.1,13-3.2c4.4,1.9,7.2,7,6.5,11.7c-0.7,4.7-4.8,8.8-9.5,9.4
		C431.9,308,426.9,305.1,425.1,300.7z"/>
</g>
</svg>
