<?xml version="1.0" encoding="utf-8"?>
<!-- Generator: Adobe Illustrator 27.0.1, SVG Export Plug-In . SVG Version: 6.00 Build 0)  -->
<svg version="1.1" id="Слой_1" xmlns="http://www.w3.org/2000/svg" xmlns:xlink="http://www.w3.org/1999/xlink" x="0px" y="0px"
	 viewBox="0 0 500 500" style="enable-background:new 0 0 500 500;" xml:space="preserve">
<path d="M332.6,264.9c-10.1-8.6-22.3-16.5-35.2-23.5c-1.7-0.9-3.4-1.8-5.1-2.7c-33.5-17.4-70-28.9-83.7-33c-1.7-0.5-3.6-0.8-5.4-0.8
	c-5.8,0-11.1,2.6-14.6,7.1c-5.9,7.6-9.5,18.4-10.8,22.9c-13-21-17.3-56.6-18.7-81.2c39.5,15.5,42.7,21.5,43,22.2v0l0,0.2
	c0,0.1,0,0.3-0.2,0.6c-1.2,1.7-6.6,3-9.7,3.4l-1.8,0.3l10,10.7l0.5,0c19.6-2.2,31.3-7.2,35-14.8c2.8-5.7-0.3-10.7-0.4-10.9
	c-10.3-15-59.2-34.6-77.1-41.3c-0.1-5,1.8-22.1,1.8-22.1c62.6,9.4,82.3,41.6,82.3,41.6c-10-52.5-55.4-70.8-78.5-76.7
	c0-0.1,0-0.1,0-0.2c1.8-17.7,17.2-38.9,17.4-39.1l1-1.4L167.5,25l-0.3,0.4c-6.3,6.8-12.9,24.1-17.8,38.9C117.7,57.7,95.9,47,95.9,47
	c19,31,35.7,42.5,44.3,46.7c-1.8,6.7-2.7,15.9-3,19c-19.2-3.5-54.1-23.7-54.4-23.9L79.8,87l1.8,3.1c16.8,29.7,47.1,50.3,51.2,52.9
	c-1.4,92.3,51.2,190.3,51.7,191.3c48.9,98.2,119.5,130.8,120.1,131.1c13.6,6.4,29,9.6,45.9,9.6c36.8,0,68.6-15.6,68.9-15.7l0.5-0.3
	l0-0.6C426.6,337.4,333.5,265.6,332.6,264.9z M287.6,362.2l1.7-2.3c2.6-3.5,10.4-12.5,15.5-12.5c0.5,0,0.9,0.1,1.3,0.2l0.3,0.1
	l0.3,0c0.3,0,10.1-1.1,11.3,25.8c0,0.4,0.9,38.7-7.2,47.4c0,0-0.3,0.2-1,0.2c-3.4,0-14.9-4.2-48.5-43.4
	c-0.5-0.7-52.3-65.3-67.9-144.5c-0.6-3,2.4-5.4,5.2-4.2c14.6,6.4,46.5,21.5,76.4,42.5c1.6,1.1,3.2,2.2,4.8,3.4
	c16.4,12,31.8,25.7,42.9,40.6c-6,0.5-25.3,2.7-29.7,13c-0.6,1-5.6,9.4-5.3,30.8L287.6,362.2z"/>
</svg>
