<?xml version="1.0" encoding="utf-8"?>
<!-- Generator: Adobe Illustrator 27.0.1, SVG Export Plug-In . SVG Version: 6.00 Build 0)  -->
<svg version="1.1" id="Слой_1" xmlns="http://www.w3.org/2000/svg" xmlns:xlink="http://www.w3.org/1999/xlink" x="0px" y="0px"
	 viewBox="0 0 500 500" style="enable-background:new 0 0 500 500;" xml:space="preserve">
<path d="M413.5,460.3c-3.4-8-11.7-18.3-32.1-18.3c0,0,11.5,7.3,10.6,15c-0.5,4.9-6.5,6.1-10.6,3.6c-16.8-10.1-96.2-59.8-99.4-186.6
	c0,0-158.8-83-139.2-213.7c0,0,57.7,23.9,49.7,53.6c-2.3,8.4-7.2,13.1-26.8,9.2c0,0,6.6,19.4,31.7,16.7c7.9-0.9,14.7-6.3,17-13.9
	c5.7-18.4,1.4-56.6-97.8-100.8c0,0-73.7,115.7,112.7,245.1c0,0-5.6,79.1-32.4,86.9c0,0-15.4-34-67-19.9c-8.4,2.3-45.7,13-44.2,46.3
	c0.5,10.6,6.6,20.1,16,25c11.7,6.1,28.5,16,29.8,23.2c0,0,43.8-7.8,49-14.4c0,0,5.2,5.9-2.6,22.9c0,0,32.7-2.6,30.1-35.3
	c0,0,30.1-11.8,34.6-20.3c0,0-2.7-43.1,6.2-60.1c0,0,25.5,61.1,43.9,112.4c5,13.8,15.8,24.8,29.6,29.8c17.1,6.2,42.3,12.7,82.8,4.6
	C412.5,469.8,415.5,464.9,413.5,460.3z M138.9,381.7c-5.3,0.5-17.6,0.2-19-9.8c-0.7-5-0.6-20.2,24.9-23.1c8.6-1,19.9-0.7,29,19.5
	C174.4,369.5,153.4,380.5,138.9,381.7z"/>
</svg>
