<?xml version="1.0" encoding="utf-8"?>
<!-- Generator: Adobe Illustrator 27.0.1, SVG Export Plug-In . SVG Version: 6.00 Build 0)  -->
<svg version="1.1" id="Слой_1" xmlns="http://www.w3.org/2000/svg" xmlns:xlink="http://www.w3.org/1999/xlink" x="0px" y="0px"
	 viewBox="0 0 500 500" style="enable-background:new 0 0 500 500;" xml:space="preserve">
<path d="M405.2,396.7c-4.5-41.7-18.4-60.3-32.4-72.9c-20.3-18.3-48.1-16.4-48.1-16.4c36.6,40.1,42.8,78.9,31,91.7
	c-14.8,16.1-70.6,6.4-101.2-9.1c-60.4-30.6-78.2-96.7-78.2-96.7c80.6-14.8,98.2,6.4,103.5,12.2c9.4,10.2,7.1,28.7-8.4,26.3
	c-9.7-1.5-13.4-3.2-12.8-6.8c0.9-5.6,13.2,1.6,13.2,1.6c-2.7-26.7-20.8-25.4-28.6-19.3c-12.3,9.6-12,24.9-7,32.9
	c9.1,14.3,51.6,27.3,69.7,1.6c22.2-31.5-7.5-57.2-14.6-62c-29.3-19.9-84.9-17.8-84.9-17.8c6-6,14-26.5,14-26.5
	c23.3,2,28.4-10.4,28.4-10.4c8.3-15.2-4.3-28.9-4.3-28.9c-5.2,14.8-27.3,16.4-27.3,16.4c-15.6,4-50.1-4.8-50.1-4.8
	c3.2,6.8,24.9,17.6,24.9,17.6c1.6,4.8-8,36.9-8,36.9l-27.7,1.3c-29.9-40.1-19.8-137.4-19.8-137.4c7.2-63,38.6-67.2,52.9-63.6
	c29.3,7.4,29.8,66.2,29.8,66.2c0.4,22.6-5.7,34.6-11.4,40.8c-4.7,5.1-12.4,5.5-17.6,0.9c-20.3-17.6-12.5-48.6-5.8-48.2
	c5.7,0.3,6.8,17.2,6.8,17.2c10,0.8,22.1-3.6,22.1-3.6c1.2-21.1-9.1-33.1-17.9-39.5c-8.2-5.9-19.4-5.6-27.3,0.8
	c-6.1,4.9-22.1,28.8-19,53.5c5.2,40.9,36,49.4,52.9,44.5c61.5-17.8,42.5-95.9,42.5-95.9c-12.4-85-70.6-74.2-70.6-74.2
	c-91.8,17.2-79,193.7-79,193.7c5.7,78.3,48,134,48,134c61,93.1,150.3,125.7,207.1,121.5C414.8,469.9,405.2,396.7,405.2,396.7z"/>
</svg>
