<?xml version="1.0" encoding="utf-8"?>
<!-- Generator: Adobe Illustrator 27.0.1, SVG Export Plug-In . SVG Version: 6.00 Build 0)  -->
<svg version="1.1" id="Слой_1" xmlns="http://www.w3.org/2000/svg" xmlns:xlink="http://www.w3.org/1999/xlink" x="0px" y="0px"
	 viewBox="0 0 500 500" style="enable-background:new 0 0 500 500;" xml:space="preserve">
<path d="M414.2,68.3c-46.7-30.1-145.1-68.6-249-20.7C132.5,62.7,115,80,113.1,81.8c-30.5,29.6-51.7,62.2-62.9,96.9
	c-9,27.8-10.9,67.4-5.8,97c17,99.3,93.3,139.8,136.9,156.1c31.8,11.9,66.5,17.9,103.2,17.9c28.4,0,48.6-3.8,52.5-4.6l-2.8,29.9
	l1.1-1.8c29.9-48.8,59.6-56.6,59.9-56.6l0.7-0.2l-0.4-0.6c-5.9-8.3-15.1-14.5-17-15.8c11.2-28.4,15.5-55.7,12.7-81.1
	c-2.2-20.4-9-39.6-20.1-57.1c-17.5-27.4-40.4-42-44-44.2l118.6-141l0.1-0.1l12.5-51.4L414.2,68.3z M266,227.1l-1.3-22.1
	c1.8,0.4,11.6,6.5,13.9,21.8L266,227.1z M281.4,143.7l22.3-19.7v-0.2c0-0.4,0.1-40.4,12.5-59.2L203.6,173.2
	c-2.3-7.1-20.1-61.1-37.2-81.1c3.6-3.9,41.2-42.6,106.4-42.6c38.8,0,79.9,13.5,122.2,40.1l-88.9,96.8
	C304.7,182.1,297.6,162.3,281.4,143.7z M146.5,112.8c3.8,5.6,32.2,51.2,18.7,141.8l-0.2,1.6l1.1-1.2c0.5-0.6,51.4-55.8,64.6-58.6
	v48.1c-3.1,2.4-40.7,32.9-48.3,83.5l-0.4,2.4l1.3-2.1c0.3-0.4,25.8-41.7,42-49.7v30c-3.6,2.4-49.1,32.7-59.8,52.4
	c-4-3-32.6-25.8-49.4-65.2C99.6,257.2,91.4,194,146.5,112.8z M226,341.9v54.9c-5.7-2.7-43.3-20.7-51.6-27.6
	C178.6,365.9,209,342.9,226,341.9z M253.5,338.8c0.9-0.1,2.9-0.2,5.9-0.2c21.1,0,70.8,7.1,79,73c-2.4,0.1-13.2,0.7-26.2,0.7
	c-21.2,0-48.5-1.3-58.6-7.7V338.8z M266.1,296.5c-1.5,0-3,0-4.5,0.1c1.1-3.6,7.5-21.4,27.8-31.3c3.5,1.5,51.5,22.2,67.5,64.2
	C349.8,322.4,320,296.5,266.1,296.5z"/>
</svg>
