<?xml version="1.0" encoding="utf-8"?>
<!-- Generator: Adobe Illustrator 27.0.1, SVG Export Plug-In . SVG Version: 6.00 Build 0)  -->
<svg version="1.1" id="Слой_1" xmlns="http://www.w3.org/2000/svg" xmlns:xlink="http://www.w3.org/1999/xlink" x="0px" y="0px"
	 viewBox="0 0 500 500" style="enable-background:new 0 0 500 500;" xml:space="preserve">
<path d="M474.9,243.3c-1.1-16.4-0.2-71.7-133.6-86.4c-0.7-8-0.3-13.2-0.3-13.2c4.5-72.6,83.3-98.7,116.7-106.5
	c2.4-0.6,2.1-4.1-0.4-4.3c-63.8-4.4-106.1,12.2-125.1,26.7c-35.7,27.3-46.1,62-45.9,93.8c-3.8-0.1-7.7-0.1-11.7-0.2l-14.1,12.9
	c0,0,11.1,0.5,26.7,2.8c4.5,40.4,23.5,72.6,23.5,72.6c-80.2,48.8-117.5,129.8-117.5,129.8c-10.6-15.5-9.8-39.6-9-53
	c0.1-0.9,0.2-1.7,0.2-2.6c10-1,16.1-1.9,16.1-1.9c-5.2-1.8-10.2-3.5-15-5.2c8.3-43.3,51.7-91.2,66.5-133.9
	c37.8-109.1-51.2-113.7-72.6-112.6C64.1,67.7,70.2,170.6,72.2,188.4c-49.1,24.8-51.3,65.1-44.1,85.1c12.2,34,60.7,43.2,103.2,44.4
	c-1,2.6-2,5.2-2.8,7.7c-11.2,33.9,10.7,68.2,21.6,85.9c5.3,8.6,5.7,19.3,1,28.2l-14.8,28l59.1-24.8c8.1-3.4,15.1-9.2,19.9-16.6
	c31.4-48.3,64.1-85.8,93.3-114.1C352.8,316,479.9,320.1,474.9,243.3z M121.7,111.1c37.4-26.6,68.4,0.5,79.6,12.2
	c8.4,8.9,14.2,19.3,17.1,29.8c-32.3,0.2-54.4,3.1-71.5,7.2c-0.7-4.6-1.7-9.3-1.7-9.3C104.5,172.9,98.4,127.6,121.7,111.1z
	 M118.9,270.6c-8.6-12.2-8.6-28.6-3-42.4c17.8-44.4,76.3-57.9,104.8-62c0.8,11.9-2.2,23.3-9,32.2c-28.9,37.8-51.8,66.8-67.1,92.7
	C132.9,284.8,124.3,278.2,118.9,270.6z M385.5,223.1c0.8,3.7,1.3,7.2,1.5,10.6c-21.7-13.4-33.3-31.8-39.4-48.5
	C366.4,193.7,381.8,205.8,385.5,223.1z M312.5,308.3c31.2-29.7,57.8-48.6,73.4-58.6C378.6,284.4,339.9,302.2,312.5,308.3z"/>
</svg>
