<?xml version="1.0" encoding="utf-8"?>
<!-- Generator: Adobe Illustrator 27.0.1, SVG Export Plug-In . SVG Version: 6.00 Build 0)  -->
<svg version="1.1" id="Слой_1" xmlns="http://www.w3.org/2000/svg" xmlns:xlink="http://www.w3.org/1999/xlink" x="0px" y="0px"
	 viewBox="0 0 500 500" style="enable-background:new 0 0 500 500;" xml:space="preserve">
<path d="M428.7,347.5l-115.4-35.1l-25.9,15.7c12.7-0.1,29.3,4.6,41.8,8.8c15.2,5.1,27,17.4,31,32.9c12.1,46.1-38.7,72.9-38.7,72.9
	c-41.6,22.2-59.4,0-59.4,0c-9.6-70.8-5.8-125.4,5.4-170.1l151.1,51.8l-142-81.7c14.3-40.2,34.5-71.9,54.7-101.2
	c26.3-38.3,36.5-70.2,36.5-70.2l-73-46.2l-2.8,12c-69.3,4.6-182-12-182-12c31.4,41.6,174.6,46.2,174.6,46.2
	c-10.2,66.5-85,122-85,122s-37-8.8-38.8-44.4c-0.6-12.1,34.2-25.9,34.2-25.9c-47.6-1.8-54.5,24.5-54.1,33.7
	c1.8,39.7,31.9,61.4,31.9,61.4c-68.4,44.4-86.9,94.3-86.9,94.3c-30.5,74.8-4.6,103-4.6,103C82.2,317.9,211.1,250,211.1,250
	c-39.3,93.8-14.3,158.5-14.3,158.5c75.8,58.2,133.1,66.5,133.1,66.5C439.8,434.3,428.7,347.5,428.7,347.5z"/>
</svg>
