<?xml version="1.0" encoding="utf-8"?>
<!-- Generator: Adobe Illustrator 27.0.1, SVG Export Plug-In . SVG Version: 6.00 Build 0)  -->
<svg version="1.1" id="Слой_1" xmlns="http://www.w3.org/2000/svg" xmlns:xlink="http://www.w3.org/1999/xlink" x="0px" y="0px"
	 viewBox="0 0 500 500" style="enable-background:new 0 0 500 500;" xml:space="preserve">
<path d="M272,421.6V228.9c22.5-6.5,106.2-36.6,81-119.4c0,0,1.1,65.7-81,87.6V45.8c0-9.9-7-18.4-16.8-20.1c-4.2-0.7-9.5-1-16-0.4
	C211,27.5,92.4,60.9,83.4,189.6c0,0,41.8-95.4,144.6-111.3v128.5c-22.5,6.5-106.2,36.6-81,119.4c0,0-1.1-65.7,81-87.6v215.5
	c0,9.9,7,18.4,16.8,20.1c4.2,0.7,9.5,1,16,0.4c28.2-2.3,146.8-35.6,155.9-164.4C416.6,310.4,374.8,405.8,272,421.6z"/>
</svg>
