<?xml version="1.0" encoding="utf-8"?>
<!-- Generator: Adobe Illustrator 27.0.1, SVG Export Plug-In . SVG Version: 6.00 Build 0)  -->
<svg version="1.1" id="Слой_1" xmlns="http://www.w3.org/2000/svg" xmlns:xlink="http://www.w3.org/1999/xlink" x="0px" y="0px"
	 viewBox="0 0 500 500" style="enable-background:new 0 0 500 500;" xml:space="preserve">
<path d="M457.9,58.2c-18.4,27.7-52,25-52,25c-69.5-1.3-228,4.6-228,4.6c-8.6-13.7-28-15.7-49.8-12.4l8.3-13.6
	c-3.6,4.3-14.8,6.6-14.8,6.6s-3.2,5.2-5.9,9.5c-40.2,9.2-83.3,32-82.1,31.7c46.4-11.2,56.4,1.5,58,5.9c8.9,24.7-45.5,60.9-45.5,60.9
	s40.5-9.6,75.1-43.8l17.8,0.7c-5.9,71.2-65.2,91.6-65.2,91.6l4.6-21.7C65.2,215,25,295.4,25,295.4c28.3-35.6,116.6-38.9,116.6-38.9
	l-37.6,78.4c-26.8,1.8-41.5,7-55.1,22.8c-22.9,26.6-15.4,70.1-15.4,70.1C44.8,442.4,67.4,443,79,441c65.4-11.4,68.5-67.9,68.5-67.9
	c2-21.7-17.1-38.2-17.1-38.2l42.2-81.7c9.9-1,67.8-2.7,96.2-4.8c13.2-1,25.6-6.8,34.9-16.2c12.5-12.8,21.8-27.7,21.8-27.7h-7.2
	L365,126c29-2,44.8,2,44.8,2c6.6,4.6-2.6,26.4-2.6,26.4c3.4,0.2,7.5-4.4,11.7-9.7c5.9-7.2,12.6-7.5,12.6-7.5
	c0.7-9.2,43.5-79.1,43.5-79.1H457.9z M123.2,356.6C123.2,356.6,123.1,356.6,123.2,356.6c-0.5,10.2-6.1,63.6-68.9,63.3
	C54.3,419.9,53,356,123.2,356.6c0-0.9,0-1.5,0-1.6V356.6z M255.3,130l39.5-2c-19.1,49.1-63.6,35.6-63.6,35.6L255.3,130z
	 M166.7,209.7c0,0-34.1,0.8-32.1,0.2c2-0.7,47.3-47.6,49.3-77.3h24.4L166.7,209.7z M306.3,204.4l-106.1,3.3l19.8-28.3
	c10.5,15.8,46.8,14.2,46.8,14.2c24.4,2.3,54.7-14.2,54.7-14.2L306.3,204.4z"/>
</svg>
