<?xml version="1.0" encoding="utf-8"?>
<!-- Generator: Adobe Illustrator 27.0.1, SVG Export Plug-In . SVG Version: 6.00 Build 0)  -->
<svg version="1.1" id="Слой_1" xmlns="http://www.w3.org/2000/svg" xmlns:xlink="http://www.w3.org/1999/xlink" x="0px" y="0px"
	 viewBox="0 0 500 500" style="enable-background:new 0 0 500 500;" xml:space="preserve">
<g>
	<path d="M475,92.6l-3.7-8.6l-0.4,0.3c-40.9,13.1-151.5,30.6-197.2,30c-38.6-0.5-88.7-1.9-92.7-1.7c33.6-36.2,46.3-50.6,72.9-51
		c14.8-0.2,35.4,9.8,35.4,9.8s-5.7-16.6-39.6-16.6c-5,0-8.2,0.6-8.4,0.6c-15.7,2.2-40.9,5.6-41.2,5.7c-29.6,5.2-66.4,58.1-68.5,61.3
		c-38.4,6.8-60.9,24.4-73.1,37.9c-13.2,14.7-17.3,28-17.3,28.2l-0.8,2.5l1.5-2.1c19.5-27.5,33.9-33.3,42.5-33.3
		c8.5,0,12.9,5.5,13,5.5c13.7,19.7-33.6,78.1-58.1,83c-8.6,1.7-14.2,1.7-14.2,1.7c21.4,9.6,79.6-16.7,82.3-20.1
		c7.7-9.8,15.7-9,32.5-8.3c-79,47.5-45.8,107.1-10.4,125.1c6.7,3.4,12.8,7.6,18.5,10.5c0.8,0.4,1.7,0.8,2.5,1.2
		c8.8,4.3,15.6,7,17.5,7.7c-41.6,47.8,13.2,76.2,53.7,81.5c65.6,8.5,88-12.8,93.4-21.6c4.6-7.6,11.7-26-12.5-43.3
		c8.6-0.3,16.8-1,24.7-2h0c0.9-0.1,1.8-0.2,2.7-0.3c19.9-2.7,37.6-7.6,53-14.6c18-8.1,32.9-19,44.2-32.5
		c19.3-22.9,21.6-45.5,21.7-45.7c3.7-18.7,0-34-6.9-46.3c-0.4-0.7-0.9-1.5-1.3-2.2c-6.2-10.1-14.6-18-22.6-24
		c-17.9-13.3-37.5-19.5-40.6-20.4c3-10.4,20.2-34.5,21.8-36.7l31.4-0.5c5.9-0.1,11.3,3.8,12.8,9.6c4.2,16.2-6.1,42.2-6.3,42.5
		l-0.7,1.7l1.4-1.2c19.2-17,24.4-31.5,22.3-51.5c-2.6-24.4,14.5-61.1,14.7-61.5L475,92.6z M346.1,160.9c-5.3,8-12.6,21.9-13.7,24.4
		l-23.1-2.7l4.3-17.2C314.2,165.5,327.5,165.4,346.1,160.9z M321.4,306.4c2.2,10.1,5.3,20.6,9.6,31c-1.8,0.4-8.2,1.9-16.6,3.5
		c-0.8,0.2-1.7,0.3-2.5,0.5c-9.8,1.8-21.8,3.4-31.8,3.4c-1.3,0-2.5,0-3.7-0.1c0.3-2,7.5-57.8,13.4-78.6l19.5,0.6l-0.1-0.5
		c0-0.2-1.8-17-1.5-32c0-0.9,0.1-1.8,0.1-2.6c0.2-4.5,0.6-8.6,1.3-12h7.1h2.6h2.5c-1.1,4.8-9.1,41.1-0.5,84.3
		C321,304.8,321.2,305.6,321.4,306.4z M245.3,346.9c-3.9,0.3-23.6,0.1-23.7,0c8-15.5,16.1-42.4,15.1-79.3c2.3-0.4,19.8,0,21.2,0.1
		L245.3,346.9z M205.8,344.7c-2.8-0.7-20.5-5-35.8-12.4c-0.7-0.3-1.5-0.7-2.2-1.1c-6.8-3.5-12.9-7.6-16.7-12.3
		c7.6-4.5,13.7-3.8,17.5-3.8c0.7,0,0.2-8.4,0.2-8.4c-0.1,0-12.3-5.6-25.5-0.8c15.4-17.3,20.5-39.4,19-89.6l3.8-3
		c1.8,1.9,13,13.6,23.6,31.3c0.4,0.7,0.9,1.5,1.3,2.2c1.2,2.1,2.4,4.2,3.5,6.4c6.8,12.9,13.6,29.8,15.6,48.6
		c0.1,0.8,0.2,1.7,0.3,2.5C211.5,317.2,210.5,330.8,205.8,344.7z M261.7,248.2h-27.6c-0.7-2.2-6.7-27.2-25-46.6
		c3.8-0.3,32.1-2,52.7,0.1C261.5,204.5,258.9,230.8,261.7,248.2z M239.1,186.8c-0.8,0.2-1.7,0.3-2.5,0.5
		c-14.3,2.6-29.5,5.2-34.4,5.2c-0.5,0-0.8,0-1.1-0.1l-6.8-4.2c4.2-1.4,38.6-13.5,67.7-15.3c2.1-0.1,4,0.1,5.7,0.4l-2.4,8.5
		C263.5,182.1,252,184.4,239.1,186.8z M151.4,252c-12.2,5.2-38.4,20.5-45.6,45.2c-10.4-50.4,33.9-70.2,47.2-77.4
		C153.2,222.7,152.4,251,151.4,252z M151.2,260.1c0,12-9.3,26.6-12,30.6C139.1,284.6,138,271.9,151.2,260.1z M269.9,398.2
		c-11,25.2-51.9,24-67.9,24c-0.9-0.5-7.5-4.8-9.3-12.2c-1.2-4.9,0-10.2,3.6-15.7c0.1-0.1,5.7-10.9,25.6-16.8l17.8,2.1v10.2
		L269.9,398.2z M360.6,242.6c1.8,1.8,8.9,9.3,14.9,19.7c0.4,0.7,0.9,1.5,1.3,2.2c5.2,9.4,9.2,20.8,8,32.3c-1.5,13-9.6,24.1-24.1,33
		c-1.1-2.5-6.4-15.4-8.3-33c-0.1-0.9-0.2-1.7-0.3-2.6v0C350.7,278.9,352,260.5,360.6,242.6z"/>
	<path d="M398.7,181.3c-1-7.6,5.5-15.2,13.2-15.9c7.7-0.7,15.2,5,17.3,12.4c1.3,4.5,0.7,9.6-2.3,13.2c-4.2,5-12.1,5.5-18.1,2.8
		C403.8,191.5,399.5,186.9,398.7,181.3z"/>
</g>
</svg>
