<?xml version="1.0" encoding="utf-8"?>
<!-- Generator: Adobe Illustrator 27.0.1, SVG Export Plug-In . SVG Version: 6.00 Build 0)  -->
<svg version="1.1" id="Слой_1" xmlns="http://www.w3.org/2000/svg" xmlns:xlink="http://www.w3.org/1999/xlink" x="0px" y="0px"
	 viewBox="0 0 500 500" style="enable-background:new 0 0 500 500;" xml:space="preserve">
<path d="M350.4,185.1c0,0,13.9,16.8-0.1,27.3c-9.6,7.7-27,0.7-24.6-14.1c0.9-5.6,4-13,15.5-14.9c0,0,16.8-115.9-90.2-158
	c-0.3-0.1-0.6-0.2-0.9-0.4c-0.3,0.1-0.6,0.2-0.9,0.4c-107,42-90.2,158-90.2,158c11.5,1.9,14.6,9.3,15.5,14.9
	c2.4,14.8-14.9,21.8-24.6,14.1c-14-10.5-0.1-27.3-0.1-27.3c-19.6,5.6-18.5,24.1-15,32.2c7.7,17.4,36.2,13.2,36.2,13.2
	c-18,10.6-19.3,26.8-15.4,35.4c9.1,20.6,39.6,6,39.6,6c-14.1-0.4-22.1-5.5-24-12.1c-4.1-14.4,14.6-19.5,14.6-19.5
	c5.3,7.2,38.2,50.8,55.2,73.4v94.5c-4.4-0.6-15.3-2.7-19.4-10.2c0,0-5.5-9.8,14.9-7.8c0,0-10.8-8.5-25.9-4.9
	c-8.6,2.1-21.8,18.2,30.3,29.8V475c0,0,7.8-11.7,18.4-21V397c4.4,0.6,15.3,2.7,19.4,10.2c0,0,5.5,9.8-14.9,7.8
	c0,0,10.8,8.5,25.9,4.9c8.6-2.1,21.8-18.2-30.3-29.8v-76.4c17-22.5,49.9-66.2,55.2-73.4c0,0,18.6,5.1,14.6,19.5
	c-1.9,6.6-9.9,11.6-24,12.1c0,0,30.5,14.7,39.6-6c3.8-8.6,2.6-24.8-15.4-35.4c0,0,28.5,4.2,36.2-13.2
	C368.9,209.1,369.9,190.7,350.4,185.1z M250,52.7c5.9,2.8,38.5,19.6,55.3,54.6c-6.3,9.8-23.8,33.8-55.3,57.7
	c-31.5-23.9-48.9-47.9-55.3-57.7C211.5,72.3,244.1,55.5,250,52.7z M275.3,211.2c-10.9-2.1-19.9-2.7-24.1-2.9c-0.5,0-0.9,0-1.3-0.1h0
	c-0.1,0-0.2,0-0.3,0l-0.9,0c-4.2,0.2-13.1,0.9-24.1,2.9c7.6-4,16.3-8.7,25.3-14.1C259.1,202.5,267.7,207.2,275.3,211.2z
	 M184.7,148.6c12.1,12,26.4,23.1,40.7,32.9c-9.8,5.9-20.6,11.5-32.5,16.7C186.6,179.8,184.2,163.3,184.7,148.6z M250,290.8
	c-9.9-7.5-26.3-31.9-39.3-55.1c6.3-2.2,18.4-5,39.2-5.3h0.1c20.8,0.3,33,3.1,39.3,5.3C276.3,258.9,259.9,283.3,250,290.8z
	 M307.1,198.3c-11.8-5.2-22.6-10.8-32.5-16.7c14.3-9.8,28.5-20.9,40.7-32.9C315.8,163.3,313.4,179.8,307.1,198.3z"/>
</svg>
