<?xml version="1.0" encoding="utf-8"?>
<!-- Generator: Adobe Illustrator 27.0.1, SVG Export Plug-In . SVG Version: 6.00 Build 0)  -->
<svg version="1.1" id="Слой_1" xmlns="http://www.w3.org/2000/svg" xmlns:xlink="http://www.w3.org/1999/xlink" x="0px" y="0px"
	 viewBox="0 0 500 500" style="enable-background:new 0 0 500 500;" xml:space="preserve">
<path d="M418,284.1c-4.9-5.4-7.2-11.1-4.3-23.4l1.9,0l59.3,2.6c0,0-36.9-12.7-56-18.5c0.7-1.9,1.5-3.8,2.4-5.9
	c3-7,15.1-26.5,15.1-26.5s-24.4,6.8-32.5,29.9c-19.7,0.8-108.2,2.1-148.6,2.6c0.4-1.5,0.6-2.3,0.6-2.3c8.9-22.8,15.1-49.9,19.4-74.7
	h0c19.4-2.9,42.5-15.3,42.5-15.3s-20.6,1.9-40.5,3.3c5.5-35.4,7.2-63.7,7.2-63.7L256,97.8c-0.4,7.8-4.4,32-9.3,59.4
	c-27.2-0.2-31.8-31.3-31.8-31.3l-29.1,10.9c0.2,1.9,0.5,3.6,0.9,5.3c3.4,15.5,17,26.8,32.9,27.4c7.5,0.3,16.4,0.2,24.9-0.1
	c-5.1,28-10.7,57.4-14.2,75.4l-150.6-5.4C76.8,226.4,65.9,201.3,25,204v31.2c0,0,28.6-7.3,37.5,14.8c0,0,9.4,21.6-10.9,61.4
	c0,0,24.6-1.8,29-63c15.4,2.4,39.5,6,50,6.7c40.1,2.3,76,3,97.1,3c-0.5,2.7-0.8,4.2-0.8,4.2c-1.4,8.6-6.4,27.7-12.5,49.2
	c-37.2-0.4-43.2,14.8-43.2,14.8c18-2.4,30.8-2.2,39.4-1.4c-11.5,40-24.8,83-24.8,83c14.2-8.1,30.1-43.2,43.1-79
	c25.2,6.9,26.8,14.1,28.2,19.8c2.4,10.5-5.2,22.7-5.2,22.7c33.6-5,26.8-27.1,23.9-32.8c-7.1-14.1-28-21.3-41.6-24.6
	c7.6-22,13.8-42.9,17.6-56.4l146,2.6c-2.9,11.5-4.8,27.1,1.8,39.3c3.4,6.4,10.9,13.3,26.5,11.7c11.5-1.2,16.4-7.5,23.9-22.6
	C450,288.8,425.9,292.6,418,284.1z"/>
</svg>
