<?xml version="1.0" encoding="utf-8"?>
<!-- Generator: Adobe Illustrator 27.0.1, SVG Export Plug-In . SVG Version: 6.00 Build 0)  -->
<svg version="1.1" id="Слой_1" xmlns="http://www.w3.org/2000/svg" xmlns:xlink="http://www.w3.org/1999/xlink" x="0px" y="0px"
	 viewBox="0 0 500 500" style="enable-background:new 0 0 500 500;" xml:space="preserve">
<path d="M404,90.8c22.3-16.5,8.1-29.4,8.1-29.4c-5.8,27.1-32.3,16-47.8,15.5c-0.7,0-1.4,0-2,0c-6-8.3-17.2-22.6-30.9-33.2
	c-23.2-16.6-76.5-32.6-110.9,1.3c-12.3,13.4-20.3,43.6-0.5,71.4c0,0,15.3,26.6,49,40.5c-4.6,9.9-8.9,20-13.3,29.8
	c-5.3,0.8-10.6,1.2-15.7,1c0,0-41.7-4.2-61.3-29.1c0,0-11.1,12.8,7.9,42.5c8.7,13.5,22,30.3,38.8,42.6c-25.8,35.9-47,51.4-66.7,65.1
	c-21.5,15-41.9,16.5-59.5,14c-8.3-1.1-19.1-6.5-19.1-6.5c1.3,12.9,10.3,19.5,16.5,22.9c21.4,11.9,45.7,6,59.2,1.9
	c37.8-11.4,73.2-52.6,95.5-83.6c13,5.6,32.4,13.5,42,14.5c0,0-51.8,45.2-59.7,106.6c0,0-15.2,61.8,25.8,89c0,0,26.4,16.7,50.6-0.8
	c4.5-3.2,9.7-12.3-4.8-21.6c0,0,6.5,11.6-7.7,17.4c0,0-23.9,11-36.5-30.4c0,0-17.1-45.5,13.2-91.1c0,0,22.3-33.2,59.1-60.1
	c5.8-4.2,15.2-7.7,17.1-22.9c0,0-53.3,3.3-87-18.5c7.8-12.3,15-26,21.3-39.4c6.4-2.1,13.3-4.8,20.5-8.3c0,0,65.2-35.8,74.3-44.6
	l-11.6-11.9c0,0-31.2,17-59,12c23.2-44.5,48.8-43.9,63.9-43c17.3,1,28.2,7.3,29.1,15.5c0.8,7.6-9,11-9,11l10.7,14.2
	C440.2,126,404,90.8,404,90.8z M242.5,82.8c3.2-8.7,14.5-41.9,83,1c-20.5,9-30.7,24.7-35.9,33.2c-3.6,5.9-7,12-10.2,18.2
	C255.6,122.5,235.5,108.3,242.5,82.8z M246.6,206.5c-2.7,5.6-5.4,11.1-8.3,16.4c-7.3-5.9-15.3-13.7-22.2-23.2
	C216.1,199.6,226.9,206.1,246.6,206.5z M297,173.3c1.3-3,2.6-5.9,3.9-8.7c3.9,0.3,7.9,0.5,12.1,0.5
	C312.9,165.1,306.7,168.9,297,173.3z"/>
</svg>
