<?xml version="1.0" encoding="utf-8"?>
<!-- Generator: Adobe Illustrator 27.0.1, SVG Export Plug-In . SVG Version: 6.00 Build 0)  -->
<svg version="1.1" id="Слой_1" xmlns="http://www.w3.org/2000/svg" xmlns:xlink="http://www.w3.org/1999/xlink" x="0px" y="0px"
	 viewBox="0 0 500 500" style="enable-background:new 0 0 500 500;" xml:space="preserve">
<path d="M421.1,374.9c-9.3-17.6-37.3-10-37.3-10c35.1,10.9,30.4,21,28.4,23.7c-18.8,26.2-62.3,23.8-62.3,23.8
	c-13.6-1.2-27.1-5.9-40-12.7c16.4-14,31.6-27.6,42.1-38.1c18-18,54.6-53.3,38.4-101.7c-5.2-12.3-14.8-23.5-35.7-22.1
	c-11,1.2-25.3,5.6-43.4,35.8c-4.7,7.8-12.1,21.4-19.6,30.5c-1.3,1.6,0,4,2.1,3.8c6.2-0.6,14.6-4.6,24-14.2
	c8.2-8.3,18.6-13.2,27.9-10.3c13,5.1,31.1,24-17,74.8c-8,8.5-20.4,20.3-33.7,32.4c-46.9-31.6-82.6-86.1-82.6-86.1
	c-1-1.4-2-2.8-2.9-4.2c39.4-9.2,51.7-15.1,71.7-24.9c39.1-19.1,64.9-44.5,76.6-66.9c25.7-49.5-16-94.8-16-94.8
	c-10.3,19.1-36.6,32.6-52,36c-0.5,0.1-1,0.2-1.6,0.3c-8.5-12.1-20.3-17.2-20.3-17.2s-7.3,13-19.2,23.8c-12.8,1.7-24.6,3.1-31.9,3.8
	c30.6-41.7,60.2-82.5,60.2-82.5C261.1,66.8,262.6,25,262.6,25s-82.3,121.4-103.8,150.5c-3.2,4.3-6.4,8.5-9.5,12.8
	c-8.5-12.1-17.8-21.4-28.3-25.8c-27.6-11.5-45.4,11.5-45.4,11.5s18.7-0.9,24.6,0.8c19.9,5.9,29.9,29.5,29.9,29.5
	c0.7,1.3,1.7,3.5,3.1,6.2c-12.2,17.4-23.8,35.8-33.7,57.5c-13.1,28.6-15.4,61-12.1,81.3c4.2,26,18.8,27.9,18.8,27.9
	c-0.9-16.8,3.4-36.2,10.3-55.8c16.2-9.8,41-9.7,58.4-13.3c2.2-0.4,4.3-0.9,6.3-1.3c4.7,8.6,9,16.2,12.6,21.8
	c26.5,41,52.2,67.2,76.1,84.5c-12.4,10.7-23.7,20.1-31.2,25.6C224.9,448.9,191,473,191,473s17.8,4.4,29.1,0c0,0,30.3-23.7,63.3-51.1
	c11.1,6.8,21.8,11.8,31.9,15.6c32.7,12.3,58,7.2,75.5,0C427.3,422.5,427.9,388,421.1,374.9z M305,157.6c7.3,8.5,7.9,21.1,7.9,28.5
	c-0.2,36.1-17.6,50.3-36,61.8c-28.3,17.6-52.2,22.9-71.7,26.3c-3,0.5-6.3,1.1-10,1.7c-6.2-12-12.3-25-18.4-37.8
	c12.3,9.4,23.5,12.9,35.2,13.7c27,1.8,41.7-5.2,52.3-12.1c25.8-16.8,29.6-37.9,31.9-53.1c1.6-10.7,0.1-19.6-2.8-26.8
	C300.5,158.5,305,157.6,305,157.6z M250.3,165.8c11.5,6.5,30.4,21.3,22.3,45.6c-4.2,12.7-13.1,26.2-42.2,29.3
	c-8.8,0.9-38.4,0.1-50.7-29.9c9.8-13.2,21.1-28.6,32.5-44C221.7,168,235.9,167.3,250.3,165.8z M131.6,285.9
	c6.5-13.1,13.6-25.5,20.5-36.3c4.8,9.9,10.1,20.5,15.3,30.8C153.8,282.5,140.4,284.6,131.6,285.9z"/>
</svg>
